<svg width="191" height="76" viewBox="0 0 191 76" fill="none" xmlns="http://www.w3.org/2000/svg">
<path d="M45.4916 15.8483V16.1724C45.4689 17.1277 45.3666 18.1172 45.1848 19.1407C45.0144 20.1643 44.7701 21.1879 44.4519 22.2114C44.1337 23.235 43.7531 24.2472 43.3099 25.248C42.8668 26.2489 42.3668 27.2042 41.81 28.114C41.2646 29.0352 40.6737 29.8939 40.0374 30.69C39.4011 31.4975 38.7307 32.2083 38.0261 32.8224L35.4865 31.3553C35.8842 30.6843 36.2422 29.9508 36.5603 29.1547C36.8899 28.3699 37.1853 27.5454 37.4466 26.681C37.708 25.8167 37.9296 24.9296 38.1114 24.0198C38.3045 23.1099 38.4636 22.2058 38.5886 21.3073C38.7136 20.4088 38.8045 19.5274 38.8613 18.6631C38.9295 17.7874 38.9636 16.9571 38.9636 16.1724C38.9636 15.5582 38.9579 14.8645 38.9465 14.0911C38.9465 13.3064 38.9011 12.5103 38.8102 11.7028C38.7307 10.8953 38.5943 10.1106 38.4011 9.3486C38.208 8.57523 37.9182 7.88717 37.5319 7.2844C37.1569 6.68163 36.6683 6.19828 36.066 5.83434C35.4752 5.47041 34.7366 5.28844 33.8503 5.28844C33.0662 5.28844 32.3901 5.42492 31.822 5.69787C31.2652 5.95945 30.7879 6.3177 30.3902 6.77261C30.0039 7.21616 29.6914 7.73363 29.4528 8.32503C29.2255 8.91642 29.0437 9.54194 28.9074 10.2016C28.7824 10.8498 28.6972 11.5095 28.6517 12.1805C28.6176 12.8401 28.6006 13.4656 28.6006 14.057V18.8166H35.9467V21.6314H28.6006V27.6022H21.8339V15.1147C21.8339 13.3291 22.118 11.6687 22.6862 10.1333C23.2543 8.59798 24.0554 7.26734 25.0894 6.14141C26.1348 5.00412 27.3847 4.11702 28.8392 3.48013C30.305 2.83187 31.9356 2.50774 33.7309 2.50774C34.9468 2.50774 36.0831 2.68403 37.1398 3.03659C38.208 3.37778 39.1795 3.85544 40.0544 4.46958C40.9294 5.07235 41.7077 5.79454 42.3895 6.63614C43.0827 7.46637 43.6565 8.37621 44.111 9.36566C44.5769 10.3551 44.9291 11.4014 45.1678 12.5046C45.4064 13.6078 45.5143 14.7223 45.4916 15.8483Z" fill="white"/>
<path d="M69.3879 16.3089C69.3879 17.6395 69.2232 19.027 68.8936 20.4714C68.5755 21.9157 68.1266 23.3317 67.5471 24.7192C66.9676 26.1067 66.2745 27.4089 65.4677 28.6258C64.6609 29.8541 63.7746 30.9118 62.8088 31.7989L60.6441 30.6218C60.9509 30.0531 61.2407 29.4162 61.5134 28.7111C61.7861 28.006 62.0304 27.2611 62.2463 26.4763C62.4736 25.6802 62.6724 24.8614 62.8429 24.0198C63.0247 23.1782 63.1724 22.3479 63.286 21.5291C63.411 20.6988 63.5019 19.897 63.5587 19.1237C63.6269 18.3389 63.661 17.6111 63.661 16.9401C63.661 16.4965 63.6439 16.0245 63.6099 15.5241C63.5758 15.0123 63.5019 14.5062 63.3883 14.0058C63.286 13.4941 63.144 13.005 62.9622 12.5387C62.7804 12.0724 62.5361 11.663 62.2293 11.3104C61.9338 10.9579 61.5702 10.6736 61.1384 10.4575C60.718 10.2414 60.218 10.1333 59.6385 10.1333C59.0704 10.1333 58.5647 10.2641 58.1215 10.5257C57.6784 10.7759 57.2864 11.1114 56.9455 11.5322C56.6046 11.9416 56.3092 12.4136 56.0592 12.9481C55.8205 13.4827 55.6217 14.0343 55.4626 14.6029C55.3149 15.1602 55.2069 15.7118 55.1388 16.2577C55.0706 16.8036 55.0365 17.2926 55.0365 17.7248V27.6022H49.2584V7.89854H51.4742L54.1161 12.4875C54.4343 11.7256 54.832 11.0318 55.3092 10.4063C55.7865 9.78077 56.3262 9.24624 56.9284 8.80269C57.5307 8.35915 58.1954 8.01796 58.9226 7.77912C59.6612 7.54029 60.4566 7.42088 61.3089 7.42088C62.6724 7.42088 63.8598 7.64265 64.8711 8.0862C65.8824 8.52974 66.7233 9.14957 67.3937 9.94568C68.0641 10.7304 68.5641 11.6687 68.8936 12.7605C69.2232 13.8409 69.3879 15.0237 69.3879 16.3089Z" fill="white"/>
<path d="M79.2396 3.13894C79.2396 3.57112 79.1544 3.98055 78.9839 4.36723C78.8249 4.75391 78.6033 5.08941 78.3192 5.37374C78.0351 5.65806 77.6999 5.88552 77.3136 6.05612C76.9272 6.21534 76.5182 6.29495 76.0864 6.29495C75.6546 6.29495 75.2455 6.21534 74.8592 6.05612C74.4842 5.88552 74.1547 5.65806 73.8706 5.37374C73.5865 5.08941 73.3593 4.75391 73.1888 4.36723C73.0297 3.98055 72.9502 3.57112 72.9502 3.13894C72.9502 2.70677 73.0297 2.30303 73.1888 1.92772C73.3593 1.54104 73.5865 1.20554 73.8706 0.921212C74.1547 0.636887 74.4842 0.415114 74.8592 0.255892C75.2455 0.0852974 75.6546 0 76.0864 0C76.5182 0 76.9272 0.0852974 77.3136 0.255892C77.6999 0.415114 78.0351 0.636887 78.3192 0.921212C78.6033 1.20554 78.8249 1.54104 78.9839 1.92772C79.1544 2.30303 79.2396 2.70677 79.2396 3.13894ZM78.9839 27.6022H73.2059V7.9156H78.9839V27.6022Z" fill="white"/>
<path d="M114.283 16.1042C114.283 17.4575 114.124 18.8678 113.806 20.3349C113.488 21.802 113.039 23.235 112.459 24.6339C111.891 26.0214 111.204 27.335 110.397 28.5746C109.59 29.8143 108.692 30.889 107.704 31.7989L105.539 30.6218C105.869 30.0304 106.17 29.3651 106.443 28.6258C106.715 27.8866 106.965 27.1075 107.192 26.2887C107.42 25.4698 107.619 24.6282 107.789 23.7639C107.959 22.8995 108.102 22.0409 108.215 21.1879C108.34 20.3235 108.431 19.4876 108.488 18.6801C108.545 17.8727 108.573 17.1163 108.573 16.4112C108.573 16.0132 108.562 15.581 108.539 15.1147C108.516 14.6484 108.465 14.1821 108.386 13.7158C108.317 13.2495 108.209 12.806 108.062 12.3852C107.914 11.953 107.71 11.572 107.448 11.2422C107.198 10.901 106.88 10.6337 106.494 10.4404C106.119 10.2357 105.664 10.1333 105.13 10.1333C104.607 10.1333 104.159 10.2755 103.784 10.5598C103.42 10.8328 103.108 11.191 102.846 11.6346C102.585 12.0781 102.375 12.5785 102.216 13.1358C102.068 13.6931 101.954 14.256 101.875 14.8247C101.795 15.382 101.738 15.9165 101.704 16.4283C101.681 16.9401 101.67 17.3722 101.67 17.7248V27.6022H95.9261V18.4242C95.9261 18.0262 95.9318 17.5485 95.9432 16.9912C95.9545 16.4226 95.9375 15.8312 95.892 15.2171C95.8579 14.6029 95.7841 13.9945 95.6704 13.3917C95.5682 12.7776 95.3977 12.2316 95.1591 11.754C94.9319 11.2763 94.6194 10.8896 94.2217 10.5939C93.824 10.2869 93.324 10.1333 92.7218 10.1333C92.2104 10.1333 91.7786 10.2755 91.4264 10.5598C91.0855 10.8441 90.7957 11.2138 90.5571 11.6687C90.3299 12.1122 90.148 12.6183 90.0117 13.187C89.8867 13.7443 89.7901 14.3072 89.7219 14.8759C89.6651 15.4331 89.631 15.9677 89.6197 16.4795C89.6083 16.9799 89.6026 17.395 89.6026 17.7248V27.6022H83.8246V7.89854H86.0403L88.1538 12.4875C88.6311 10.8953 89.381 9.65567 90.4037 8.76857C91.4377 7.87011 92.807 7.42088 94.5114 7.42088C96.0454 7.42088 97.3181 7.73932 98.3294 8.37621C99.3407 9.01309 100.136 10.048 100.716 11.481C101.045 10.8555 101.409 10.2926 101.806 9.79214C102.216 9.29173 102.664 8.86524 103.153 8.51268C103.653 8.16012 104.204 7.89285 104.806 7.71089C105.409 7.51755 106.073 7.42088 106.8 7.42088C108.141 7.42088 109.283 7.64265 110.226 8.0862C111.181 8.51837 111.959 9.12114 112.561 9.8945C113.164 10.6679 113.601 11.5891 113.874 12.6581C114.147 13.7158 114.283 14.8645 114.283 16.1042Z" fill="white"/>
<path d="M137.941 27.6022H132.18V25.248C131.498 26.1806 130.674 26.8744 129.708 27.3293C128.754 27.7728 127.703 27.9946 126.555 27.9946C125.055 27.9946 123.714 27.7273 122.532 27.1928C121.351 26.6583 120.351 25.9304 119.533 25.0092C118.715 24.0766 118.09 22.9848 117.658 21.7338C117.226 20.4828 117.01 19.1407 117.01 17.7077C117.01 16.2747 117.226 14.9327 117.658 13.6817C118.09 12.4307 118.715 11.3446 119.533 10.4233C120.351 9.49076 121.351 8.7572 122.532 8.22267C123.714 7.68814 125.055 7.42088 126.555 7.42088C127.316 7.42088 128.038 7.53461 128.72 7.76207C129.413 7.98952 130.043 8.31365 130.612 8.73446C131.191 9.14388 131.697 9.64429 132.129 10.2357C132.572 10.8157 132.918 11.464 133.168 12.1805L135.725 7.89854H137.941V27.6022ZM132.146 17.7077C132.146 17.196 132.117 16.6557 132.06 16.0871C132.015 15.5184 131.93 14.9555 131.805 14.3982C131.68 13.8409 131.504 13.3121 131.276 12.8117C131.06 12.2999 130.776 11.8507 130.424 11.464C130.083 11.0659 129.668 10.7532 129.18 10.5257C128.691 10.2982 128.123 10.1845 127.475 10.1845C126.828 10.1845 126.265 10.3039 125.788 10.5428C125.311 10.7702 124.902 11.083 124.561 11.481C124.22 11.8677 123.936 12.3169 123.709 12.8287C123.493 13.3405 123.322 13.875 123.197 14.4323C123.072 14.9896 122.981 15.5526 122.925 16.1212C122.879 16.6785 122.856 17.2073 122.856 17.7077C122.856 18.2082 122.879 18.7427 122.925 19.3113C122.981 19.88 123.072 20.4429 123.197 21.0002C123.322 21.5575 123.493 22.092 123.709 22.6038C123.936 23.1156 124.22 23.5705 124.561 23.9686C124.902 24.3553 125.311 24.668 125.788 24.9068C126.265 25.1343 126.828 25.248 127.475 25.248C128.066 25.248 128.589 25.1286 129.043 24.8898C129.509 24.6396 129.913 24.3098 130.254 23.9003C130.606 23.4909 130.901 23.0246 131.14 22.5015C131.379 21.9783 131.572 21.4381 131.719 20.8808C131.867 20.3235 131.975 19.7719 132.043 19.226C132.111 18.6688 132.146 18.1627 132.146 17.7077Z" fill="white"/>
<path d="M148.815 3.13894C148.815 3.57112 148.73 3.98055 148.559 4.36723C148.4 4.75391 148.179 5.08941 147.895 5.37374C147.611 5.65806 147.275 5.88552 146.889 6.05612C146.503 6.21534 146.094 6.29495 145.662 6.29495C145.23 6.29495 144.821 6.21534 144.435 6.05612C144.06 5.88552 143.73 5.65806 143.446 5.37374C143.162 5.08941 142.935 4.75391 142.764 4.36723C142.605 3.98055 142.526 3.57112 142.526 3.13894C142.526 2.70677 142.605 2.30303 142.764 1.92772C142.935 1.54104 143.162 1.20554 143.446 0.921212C143.73 0.636887 144.06 0.415114 144.435 0.255892C144.821 0.0852974 145.23 0 145.662 0C146.094 0 146.503 0.0852974 146.889 0.255892C147.275 0.415114 147.611 0.636887 147.895 0.921212C148.179 1.20554 148.4 1.54104 148.559 1.92772C148.73 2.30303 148.815 2.70677 148.815 3.13894ZM148.559 27.6022H142.781V7.9156H148.559V27.6022Z" fill="white"/>
<path d="M170.342 21.3073C170.342 22.1716 170.217 22.9393 169.967 23.6103C169.717 24.2813 169.376 24.867 168.944 25.3675C168.513 25.8565 168.001 26.2716 167.41 26.6128C166.82 26.9426 166.183 27.2099 165.502 27.4146C164.831 27.6193 164.127 27.7672 163.388 27.8581C162.649 27.9491 161.917 27.9946 161.189 27.9946C160.212 27.9946 159.348 27.9321 158.599 27.807C157.849 27.6819 157.133 27.4828 156.451 27.2099C155.769 26.9256 155.087 26.5616 154.406 26.1181C153.735 25.6745 152.985 25.1343 152.156 24.4974L155.513 21.7508C155.82 22.3309 156.224 22.8597 156.724 23.3374C157.235 23.8037 157.763 24.2074 158.309 24.5486C158.854 24.8898 159.383 25.1514 159.894 25.3333C160.405 25.5153 160.82 25.6063 161.138 25.6063C161.399 25.6063 161.695 25.6006 162.024 25.5892C162.354 25.5665 162.689 25.5324 163.03 25.4869C163.371 25.43 163.706 25.3504 164.036 25.248C164.365 25.1457 164.655 25.0092 164.905 24.8386C165.166 24.6566 165.371 24.4349 165.519 24.1733C165.678 23.9003 165.757 23.5762 165.757 23.2009C165.757 22.8142 165.655 22.4787 165.45 22.1944C165.257 21.8987 165.002 21.6428 164.683 21.4267C164.365 21.2106 164.002 21.0287 163.593 20.8808C163.183 20.733 162.769 20.6022 162.348 20.4884C161.939 20.3747 161.542 20.278 161.155 20.1984C160.769 20.1074 160.434 20.0221 160.15 19.9425C159.627 19.7947 159.076 19.6468 158.496 19.499C157.917 19.3398 157.343 19.1635 156.775 18.9701C156.207 18.7654 155.661 18.5266 155.139 18.2536C154.627 17.9807 154.173 17.6566 153.775 17.2813C153.389 16.8946 153.076 16.4453 152.838 15.9336C152.61 15.4104 152.497 14.8019 152.497 14.1082C152.497 12.8344 152.747 11.771 153.247 10.9181C153.758 10.0537 154.428 9.36566 155.258 8.85387C156.087 8.33071 157.03 7.96109 158.087 7.74501C159.144 7.52892 160.218 7.42088 161.309 7.42088C162.059 7.42088 162.848 7.50049 163.678 7.65971C164.507 7.80756 165.314 8.03502 166.098 8.34209C166.882 8.63779 167.615 9.00172 168.297 9.43389C168.979 9.86607 169.547 10.3608 170.001 10.9181L166.643 13.6817C166.394 12.9993 166.064 12.4136 165.655 11.9246C165.257 11.4355 164.82 11.0375 164.342 10.7304C163.877 10.412 163.394 10.1788 162.894 10.031C162.405 9.88313 161.951 9.8092 161.53 9.8092C161.121 9.8092 160.661 9.82626 160.15 9.86038C159.638 9.8945 159.155 9.99117 158.701 10.1504C158.258 10.3096 157.877 10.5541 157.559 10.884C157.252 11.2024 157.099 11.6459 157.099 12.2146C157.099 12.624 157.19 12.9766 157.371 13.2723C157.564 13.5566 157.814 13.8068 158.121 14.0229C158.428 14.2276 158.775 14.4039 159.161 14.5517C159.559 14.6882 159.962 14.8133 160.371 14.927C160.78 15.0294 161.178 15.1204 161.564 15.2C161.951 15.2796 162.297 15.3649 162.604 15.4559C163.127 15.6037 163.678 15.7573 164.257 15.9165C164.848 16.0643 165.428 16.2406 165.996 16.4453C166.564 16.6387 167.109 16.8718 167.632 17.1448C168.166 17.4064 168.632 17.7305 169.03 18.1172C169.427 18.5039 169.746 18.9588 169.984 19.4819C170.223 19.9937 170.342 20.6022 170.342 21.3073Z" fill="white"/>
<path d="M21.5783 59.4011C21.5783 60.4588 21.4419 61.3914 21.1692 62.1989C20.9078 63.0064 20.5329 63.7058 20.0443 64.2972C19.567 64.8886 18.9989 65.3833 18.3398 65.7814C17.6808 66.1794 16.9592 66.4979 16.1752 66.7367C15.4025 66.9755 14.5787 67.1461 13.7037 67.2485C12.8401 67.3508 11.9595 67.402 11.0618 67.402C9.88009 67.402 8.78925 67.311 7.78931 67.1291C6.78937 66.9585 5.84624 66.6855 4.95993 66.3102C4.08498 65.9235 3.23844 65.4288 2.42031 64.826C1.61354 64.2233 0.80677 63.4897 0 62.6254L3.47707 59.0941C3.79523 59.8788 4.2327 60.6067 4.78949 61.2777C5.34627 61.9373 5.95419 62.5059 6.61324 62.9836C7.28366 63.4613 7.9768 63.8366 8.69266 64.1095C9.40853 64.3825 10.0846 64.519 10.721 64.519C11.4709 64.519 12.1754 64.4678 12.8345 64.3654C13.4935 64.2517 14.0673 64.0697 14.556 63.8195C15.0446 63.5693 15.4252 63.2395 15.6979 62.8301C15.982 62.4093 16.124 61.8861 16.124 61.2606C16.124 60.7829 16.0161 60.3735 15.8002 60.0323C15.5843 59.6911 15.3002 59.4011 14.948 59.1623C14.6071 58.9121 14.2151 58.7017 13.7719 58.5311C13.3288 58.3605 12.8742 58.2183 12.4084 58.1046C11.9538 57.9795 11.505 57.8715 11.0618 57.7805C10.6187 57.6781 10.2267 57.5758 9.88578 57.4734C9.21536 57.2801 8.51654 57.0753 7.78931 56.8593C7.06208 56.6318 6.34621 56.3759 5.64171 56.0916C4.93721 55.8073 4.26679 55.4831 3.63047 55.1192C3.0055 54.7439 2.4544 54.306 1.97716 53.8056C1.49991 53.2938 1.11925 52.7081 0.835178 52.0485C0.551104 51.3775 0.409067 50.6098 0.409067 49.7455C0.409067 48.7105 0.534059 47.795 0.784044 46.9989C1.04539 46.1914 1.40901 45.492 1.87489 44.9006C2.34077 44.3092 2.89187 43.8144 3.5282 43.4164C4.16453 43.007 4.86335 42.6828 5.62467 42.444C6.38598 42.1938 7.19275 42.0175 8.04498 41.9152C8.90856 41.8014 9.78919 41.7446 10.6869 41.7446C11.9141 41.7446 13.0276 41.8583 14.0276 42.0857C15.0389 42.3132 15.9706 42.6373 16.8229 43.0581C17.6751 43.4789 18.4534 43.985 19.158 44.5764C19.8738 45.1565 20.5442 45.8047 21.1692 46.5212L17.6921 50.0525C17.4194 49.2337 17.0388 48.4944 16.5502 47.8348C16.0729 47.1752 15.5388 46.6122 14.948 46.1459C14.3571 45.6682 13.7378 45.3043 13.0901 45.0541C12.4424 44.7925 11.8175 44.6617 11.2152 44.6617C10.4312 44.6617 9.70965 44.7186 9.0506 44.8323C8.39155 44.9347 7.8234 45.111 7.34615 45.3612C6.88027 45.6 6.51666 45.9298 6.25531 46.3506C5.99396 46.76 5.86329 47.2718 5.86329 47.886C5.86329 48.375 5.95987 48.7901 6.15304 49.1313C6.34621 49.4725 6.60188 49.7625 6.92004 50.0013C7.24957 50.2402 7.61887 50.4392 8.02793 50.5984C8.437 50.7463 8.85743 50.8771 9.28922 50.9908C9.73238 51.1045 10.1642 51.2069 10.5846 51.2979C11.0164 51.3775 11.4084 51.4685 11.7607 51.5708C12.4424 51.7642 13.1583 51.9689 13.9083 52.185C14.6582 52.401 15.3968 52.6569 16.124 52.9526C16.8513 53.237 17.5444 53.5668 18.2035 53.9421C18.8625 54.3174 19.442 54.7666 19.942 55.2898C20.442 55.8016 20.8397 56.3987 21.1351 57.081C21.4305 57.752 21.5783 58.5254 21.5783 59.4011Z" fill="white"/>
<path d="M29.9641 57.5587C30.6686 57.7179 31.3731 57.843 32.0776 57.934C32.7821 58.025 33.4923 58.0705 34.2082 58.0705C34.9581 58.0705 35.6513 58.0022 36.2876 57.8658C36.9353 57.7179 37.4921 57.4791 37.958 57.1493C38.4352 56.8081 38.8102 56.3588 39.0829 55.8016C39.3556 55.2443 39.492 54.5505 39.492 53.7203C39.492 53.0493 39.4011 52.4352 39.2193 51.8779C39.0375 51.3206 38.7647 50.8429 38.4011 50.4449C38.0489 50.0468 37.6114 49.7398 37.0887 49.5237C36.566 49.2962 35.9581 49.1825 35.2649 49.1825C34.6173 49.1825 34.0321 49.3019 33.5094 49.5407C32.998 49.7796 32.5435 50.1037 32.1458 50.5131C31.7595 50.9112 31.4243 51.3775 31.1402 51.912C30.8675 52.4465 30.6402 53.0038 30.4584 53.5838C30.2766 54.1639 30.1459 54.7496 30.0664 55.341C29.9869 55.9324 29.9471 56.4896 29.9471 57.0128C29.9471 57.1038 29.9471 57.1948 29.9471 57.2857C29.9471 57.3767 29.9528 57.4677 29.9641 57.5587ZM44.1621 53.6691C44.1621 54.4766 44.0315 55.1988 43.7701 55.8357C43.5088 56.4612 43.1508 57.0128 42.6963 57.4905C42.2532 57.9681 41.7362 58.3719 41.1453 58.7017C40.5544 59.0315 39.9238 59.3045 39.2533 59.5205C38.5829 59.7253 37.8898 59.8731 37.1739 59.9641C36.4694 60.0551 35.782 60.1006 35.1115 60.1006C34.2593 60.1006 33.4185 60.0437 32.589 59.93C31.7595 59.8049 30.9413 59.6115 30.1346 59.3499C30.2596 60.1006 30.4584 60.8171 30.7311 61.4994C31.0038 62.1704 31.3675 62.7618 31.822 63.2736C32.2765 63.774 32.8333 64.1721 33.4923 64.4678C34.1627 64.7635 34.9525 64.9113 35.8615 64.9113C36.4637 64.9113 37.0376 64.8204 37.583 64.6384C38.1284 64.4564 38.6284 64.2005 39.0829 63.8707C39.5374 63.5409 39.9351 63.1485 40.276 62.6936C40.6283 62.2387 40.9123 61.7326 41.1282 61.1753L43.6167 62.0965C43.2417 62.995 42.7247 63.774 42.0657 64.4337C41.418 65.0819 40.6794 65.6221 39.8499 66.0543C39.0318 66.4751 38.1568 66.7879 37.2251 66.9926C36.3047 67.1973 35.3899 67.2997 34.4809 67.2997C32.981 67.2997 31.5947 67.0495 30.3221 66.549C29.0494 66.0373 27.9529 65.3264 27.0325 64.4166C26.1121 63.5068 25.3905 62.4207 24.8678 61.1582C24.3451 59.8958 24.0838 58.514 24.0838 57.0128C24.0838 55.5116 24.3451 54.1297 24.8678 52.8673C25.3905 51.6049 26.1121 50.5188 27.0325 49.609C27.9529 48.6991 29.0494 47.994 30.3221 47.4936C31.5947 46.9818 32.981 46.7259 34.4809 46.7259C35.2081 46.7259 35.9524 46.7771 36.7137 46.8795C37.475 46.9818 38.2136 47.1467 38.9295 47.3742C39.6454 47.5903 40.3215 47.8746 40.9578 48.2272C41.5941 48.5797 42.1452 49.0176 42.6111 49.5407C43.0883 50.0525 43.4633 50.6496 43.736 51.332C44.0201 52.0144 44.1621 52.7934 44.1621 53.6691Z" fill="white"/>
<path d="M53.5195 66.9073H47.7585V38.1279H49.9743L53.5195 44.1158V66.9073Z" fill="white"/>
<path d="M68.4505 66.9073H63.269L56.1103 47.2036H61.8713L67.121 62.8983L72.2173 47.2036H76.2057L68.4505 66.9073Z" fill="white"/>
<path d="M98.1248 66.9073H92.3638V64.5531C91.682 65.4857 90.8582 66.1794 89.8924 66.6343C88.9379 67.0779 87.8868 67.2997 86.7392 67.2997C85.2392 67.2997 83.8984 67.0324 82.7167 66.4979C81.5349 65.9633 80.535 65.2355 79.7168 64.3143C78.8987 63.3817 78.2738 62.2899 77.842 61.0388C77.4102 59.7878 77.1943 58.4458 77.1943 57.0128C77.1943 55.5798 77.4102 54.2378 77.842 52.9868C78.2738 51.7357 78.8987 50.6496 79.7168 49.7284C80.535 48.7958 81.5349 48.0623 82.7167 47.5277C83.8984 46.9932 85.2392 46.7259 86.7392 46.7259C87.5005 46.7259 88.222 46.8397 88.9038 47.0671C89.5969 47.2946 90.2276 47.6187 90.7957 48.0395C91.3752 48.4489 91.8809 48.9493 92.3127 49.5407C92.7558 50.1208 93.1024 50.769 93.3524 51.4855L95.9091 47.2036H98.1248V66.9073ZM92.3297 57.0128C92.3297 56.501 92.3013 55.9608 92.2445 55.3921C92.1991 54.8235 92.1138 54.2605 91.9888 53.7033C91.8639 53.146 91.6877 52.6171 91.4605 52.1167C91.2446 51.6049 90.9605 51.1557 90.6082 50.769C90.2674 50.371 89.8526 50.0582 89.364 49.8308C88.8754 49.6033 88.3072 49.4896 87.6596 49.4896C87.0119 49.4896 86.4494 49.609 85.9722 49.8478C85.4949 50.0753 85.0858 50.388 84.745 50.7861C84.4041 51.1728 84.12 51.622 83.8927 52.1338C83.6768 52.6456 83.5064 53.1801 83.3814 53.7374C83.2564 54.2946 83.1655 54.8576 83.1087 55.4263C83.0632 55.9835 83.0405 56.5124 83.0405 57.0128C83.0405 57.5132 83.0632 58.0477 83.1087 58.6164C83.1655 59.185 83.2564 59.748 83.3814 60.3053C83.5064 60.8626 83.6768 61.3971 83.8927 61.9089C84.12 62.4207 84.4041 62.8756 84.745 63.2736C85.0858 63.6603 85.4949 63.9731 85.9722 64.2119C86.4494 64.4394 87.0119 64.5531 87.6596 64.5531C88.2504 64.5531 88.7731 64.4337 89.2276 64.1948C89.6935 63.9446 90.0969 63.6148 90.4378 63.2054C90.7901 62.796 91.0855 62.3297 91.3241 61.8065C91.5627 61.2834 91.7559 60.7431 91.9036 60.1859C92.0513 59.6286 92.1593 59.077 92.2275 58.5311C92.2956 57.9738 92.3297 57.4677 92.3297 57.0128Z" fill="white"/>
<path d="M122.771 64.536C122.771 66.1055 122.538 67.584 122.072 68.9715C121.606 70.359 120.93 71.5702 120.044 72.6052C119.158 73.6515 118.067 74.476 116.771 75.0788C115.487 75.6929 114.022 76 112.374 76C111.465 76 110.545 75.8976 109.613 75.6929C108.692 75.4882 107.817 75.1698 106.988 74.7376C106.17 74.3168 105.431 73.7766 104.772 73.1169C104.124 72.4687 103.613 71.701 103.238 70.8139L105.727 69.8756C105.943 70.4329 106.221 70.9447 106.562 71.411C106.914 71.8773 107.317 72.2753 107.772 72.6052C108.227 72.9464 108.726 73.2079 109.272 73.3899C109.817 73.5832 110.391 73.6799 110.993 73.6799C112.13 73.6799 113.079 73.4468 113.84 72.9805C114.613 72.5142 115.232 71.9057 115.698 71.1551C116.164 70.4045 116.499 69.5515 116.703 68.5962C116.908 67.6522 117.01 66.6912 117.01 65.7131V64.5531C116.328 65.4857 115.504 66.1794 114.539 66.6343C113.584 67.0779 112.533 67.2997 111.385 67.2997C109.886 67.2997 108.545 67.0324 107.363 66.4979C106.181 65.9633 105.181 65.2355 104.363 64.3143C103.545 63.3817 102.92 62.2899 102.488 61.0388C102.056 59.7878 101.841 58.4458 101.841 57.0128C101.841 55.5798 102.056 54.2378 102.488 52.9868C102.92 51.7357 103.545 50.6496 104.363 49.7284C105.181 48.7958 106.181 48.0623 107.363 47.5277C108.545 46.9932 109.886 46.7259 111.385 46.7259C112.147 46.7259 112.868 46.8397 113.55 47.0671C114.243 47.2946 114.874 47.6187 115.442 48.0395C116.022 48.4489 116.527 48.9493 116.959 49.5407C117.402 50.1208 117.749 50.769 117.999 51.4855L120.555 47.2036H122.771V64.536ZM116.976 57.0128C116.976 56.501 116.948 55.9608 116.891 55.3921C116.845 54.8235 116.76 54.2605 116.635 53.7033C116.51 53.146 116.334 52.6171 116.107 52.1167C115.891 51.6049 115.607 51.1557 115.255 50.769C114.914 50.371 114.499 50.0582 114.01 49.8308C113.522 49.6033 112.954 49.4896 112.306 49.4896C111.658 49.4896 111.096 49.609 110.618 49.8478C110.141 50.0753 109.732 50.388 109.391 50.7861C109.05 51.1728 108.766 51.622 108.539 52.1338C108.323 52.6456 108.153 53.1801 108.028 53.7374C107.903 54.2946 107.812 54.8576 107.755 55.4263C107.71 55.9835 107.687 56.5124 107.687 57.0128C107.687 57.5132 107.71 58.0477 107.755 58.6164C107.812 59.185 107.903 59.748 108.028 60.3053C108.153 60.8626 108.323 61.3971 108.539 61.9089C108.766 62.4207 109.05 62.8756 109.391 63.2736C109.732 63.6603 110.141 63.9731 110.618 64.2119C111.096 64.4394 111.658 64.5531 112.306 64.5531C112.897 64.5531 113.419 64.4337 113.874 64.1948C114.34 63.9446 114.743 63.6148 115.084 63.2054C115.436 62.796 115.732 62.3297 115.97 61.8065C116.209 61.2834 116.402 60.7431 116.55 60.1859C116.698 59.6286 116.806 59.077 116.874 58.5311C116.942 57.9738 116.976 57.4677 116.976 57.0128Z" fill="white"/>
<path d="M132.333 57.5587C133.038 57.7179 133.742 57.843 134.447 57.934C135.151 58.025 135.861 58.0705 136.577 58.0705C137.327 58.0705 138.02 58.0022 138.657 57.8658C139.304 57.7179 139.861 57.4791 140.327 57.1493C140.804 56.8081 141.179 56.3588 141.452 55.8016C141.725 55.2443 141.861 54.5505 141.861 53.7203C141.861 53.0493 141.77 52.4352 141.588 51.8779C141.406 51.3206 141.134 50.8429 140.77 50.4449C140.418 50.0468 139.98 49.7398 139.458 49.5237C138.935 49.2962 138.327 49.1825 137.634 49.1825C136.986 49.1825 136.401 49.3019 135.878 49.5407C135.367 49.7796 134.912 50.1037 134.515 50.5131C134.128 50.9112 133.793 51.3775 133.509 51.912C133.236 52.4465 133.009 53.0038 132.827 53.5838C132.646 54.1639 132.515 54.7496 132.435 55.341C132.356 55.9324 132.316 56.4896 132.316 57.0128C132.316 57.1038 132.316 57.1948 132.316 57.2857C132.316 57.3767 132.322 57.4677 132.333 57.5587ZM146.531 53.6691C146.531 54.4766 146.4 55.1988 146.139 55.8357C145.878 56.4612 145.52 57.0128 145.065 57.4905C144.622 57.9681 144.105 58.3719 143.514 58.7017C142.923 59.0315 142.293 59.3045 141.622 59.5205C140.952 59.7253 140.259 59.8731 139.543 59.9641C138.838 60.0551 138.151 60.1006 137.48 60.1006C136.628 60.1006 135.787 60.0437 134.958 59.93C134.128 59.8049 133.31 59.6115 132.503 59.3499C132.628 60.1006 132.827 60.8171 133.1 61.4994C133.373 62.1704 133.736 62.7618 134.191 63.2736C134.645 63.774 135.202 64.1721 135.861 64.4678C136.532 64.7635 137.321 64.9113 138.23 64.9113C138.833 64.9113 139.406 64.8204 139.952 64.6384C140.497 64.4564 140.997 64.2005 141.452 63.8707C141.906 63.5409 142.304 63.1485 142.645 62.6936C142.997 62.2387 143.281 61.7326 143.497 61.1753L145.986 62.0965C145.611 62.995 145.094 63.774 144.435 64.4337C143.787 65.0819 143.048 65.6221 142.219 66.0543C141.401 66.4751 140.526 66.7879 139.594 66.9926C138.674 67.1973 137.759 67.2997 136.85 67.2997C135.35 67.2997 133.964 67.0495 132.691 66.549C131.418 66.0373 130.322 65.3264 129.401 64.4166C128.481 63.5068 127.759 62.4207 127.237 61.1582C126.714 59.8958 126.453 58.514 126.453 57.0128C126.453 55.5116 126.714 54.1297 127.237 52.8673C127.759 51.6049 128.481 50.5188 129.401 49.609C130.322 48.6991 131.418 47.994 132.691 47.4936C133.964 46.9818 135.35 46.7259 136.85 46.7259C137.577 46.7259 138.321 46.7771 139.083 46.8795C139.844 46.9818 140.583 47.1467 141.298 47.3742C142.014 47.5903 142.69 47.8746 143.327 48.2272C143.963 48.5797 144.514 49.0176 144.98 49.5407C145.457 50.0525 145.832 50.6496 146.105 51.332C146.389 52.0144 146.531 52.7934 146.531 53.6691Z" fill="white"/>
<path d="M170.257 55.6139C170.257 56.9446 170.092 58.3321 169.763 59.7764C169.444 61.2208 168.996 62.6367 168.416 64.0242C167.837 65.4117 167.143 66.714 166.337 67.9309C165.53 69.1591 164.644 70.2168 163.678 71.1039L161.513 69.9268C161.82 69.3582 162.11 68.7213 162.382 68.0162C162.655 67.311 162.899 66.5661 163.115 65.7814C163.343 64.9853 163.541 64.1664 163.712 63.3248C163.894 62.4832 164.041 61.653 164.155 60.8341C164.28 60.0039 164.371 59.2021 164.428 58.4287C164.496 57.644 164.53 56.9161 164.53 56.2451C164.53 55.8016 164.513 55.3296 164.479 54.8292C164.445 54.3174 164.371 53.8113 164.257 53.3109C164.155 52.7991 164.013 52.3101 163.831 51.8438C163.649 51.3775 163.405 50.9681 163.098 50.6155C162.803 50.2629 162.439 49.9786 162.007 49.7625C161.587 49.5464 161.087 49.4384 160.507 49.4384C159.939 49.4384 159.434 49.5692 158.991 49.8308C158.547 50.081 158.155 50.4165 157.814 50.8373C157.474 51.2467 157.178 51.7187 156.928 52.2532C156.69 52.7877 156.491 53.3393 156.332 53.908C156.184 54.4652 156.076 55.0168 156.008 55.5627C155.94 56.1086 155.906 56.5977 155.906 57.0299V66.9073H150.127V47.2036H152.343L154.985 51.7926C155.303 51.0306 155.701 50.3368 156.178 49.7113C156.655 49.0858 157.195 48.5513 157.797 48.1077C158.4 47.6642 159.064 47.323 159.792 47.0842C160.53 46.8453 161.326 46.7259 162.178 46.7259C163.541 46.7259 164.729 46.9477 165.74 47.3912C166.751 47.8348 167.592 48.4546 168.263 49.2507C168.933 50.0355 169.433 50.9737 169.763 52.0655C170.092 53.146 170.257 54.3288 170.257 55.6139Z" fill="white"/>
<path d="M191 60.6123C191 61.4767 190.875 62.2444 190.625 62.9154C190.375 63.5864 190.034 64.1721 189.602 64.6725C189.171 65.1615 188.659 65.5767 188.068 65.9178C187.477 66.2477 186.841 66.5149 186.159 66.7196C185.489 66.9244 184.784 67.0722 184.046 67.1632C183.307 67.2542 182.574 67.2997 181.847 67.2997C180.87 67.2997 180.006 67.2371 179.256 67.112C178.506 66.9869 177.791 66.7879 177.109 66.5149C176.427 66.2306 175.745 65.8667 175.063 65.4231C174.393 64.9796 173.643 64.4394 172.814 63.8025L176.171 61.0559C176.478 61.6359 176.882 62.1648 177.381 62.6424C177.893 63.1087 178.421 63.5125 178.967 63.8536C179.512 64.1948 180.04 64.4564 180.552 64.6384C181.063 64.8204 181.478 64.9113 181.796 64.9113C182.057 64.9113 182.353 64.9056 182.682 64.8943C183.012 64.8715 183.347 64.8374 183.688 64.7919C184.029 64.7351 184.364 64.6554 184.694 64.5531C185.023 64.4507 185.313 64.3143 185.563 64.1437C185.824 63.9617 186.029 63.7399 186.176 63.4783C186.336 63.2054 186.415 62.8813 186.415 62.5059C186.415 62.1193 186.313 61.7838 186.108 61.4994C185.915 61.2037 185.659 60.9478 185.341 60.7318C185.023 60.5157 184.659 60.3337 184.25 60.1859C183.841 60.038 183.427 59.9072 183.006 59.7935C182.597 59.6798 182.199 59.5831 181.813 59.5035C181.427 59.4125 181.092 59.3272 180.807 59.2476C180.285 59.0997 179.734 58.9519 179.154 58.804C178.575 58.6448 178.001 58.4685 177.433 58.2752C176.864 58.0705 176.319 57.8316 175.796 57.5587C175.285 57.2857 174.831 56.9616 174.433 56.5863C174.046 56.1996 173.734 55.7504 173.495 55.2386C173.268 54.7155 173.154 54.107 173.154 53.4132C173.154 52.1395 173.404 51.0761 173.904 50.2231C174.416 49.3588 175.086 48.6707 175.916 48.1589C176.745 47.6358 177.688 47.2661 178.745 47.0501C179.802 46.834 180.876 46.7259 181.966 46.7259C182.716 46.7259 183.506 46.8055 184.336 46.9648C185.165 47.1126 185.972 47.3401 186.756 47.6471C187.54 47.9428 188.273 48.3068 188.955 48.7389C189.636 49.1711 190.205 49.6658 190.659 50.2231L187.301 52.9868C187.051 52.3044 186.722 51.7187 186.313 51.2296C185.915 50.7406 185.478 50.3425 185 50.0355C184.534 49.717 184.052 49.4839 183.552 49.336C183.063 49.1882 182.608 49.1143 182.188 49.1143C181.779 49.1143 181.319 49.1313 180.807 49.1654C180.296 49.1996 179.813 49.2962 179.359 49.4554C178.915 49.6147 178.535 49.8592 178.217 50.189C177.91 50.5074 177.756 50.951 177.756 51.5196C177.756 51.9291 177.847 52.2816 178.029 52.5773C178.222 52.8617 178.472 53.1119 178.779 53.3279C179.086 53.5327 179.433 53.7089 179.819 53.8568C180.217 53.9933 180.62 54.1184 181.029 54.2321C181.438 54.3345 181.836 54.4254 182.222 54.505C182.608 54.5847 182.955 54.67 183.262 54.7609C183.785 54.9088 184.336 55.0623 184.915 55.2215C185.506 55.3694 186.086 55.5457 186.654 55.7504C187.222 55.9437 187.767 56.1769 188.29 56.4498C188.824 56.7114 189.29 57.0355 189.688 57.4222C190.085 57.8089 190.403 58.2638 190.642 58.787C190.881 59.2988 191 59.9072 191 60.6123Z" fill="white"/>
</svg>
